<svg preserveAspectRatio="none" overflow="visible" style="display: block;" width="64" height="64" viewBox="0 0 64 64" fill="none" xmlns="http://www.w3.org/2000/svg">
<g id="icon/ui">
<mask id="mask0_0_70" style="mask-type:alpha" maskUnits="userSpaceOnUse" x="0" y="0" width="64" height="64">
<rect id="decor/shape" width="64" height="64" fill="#D9D9D9"/>
</mask>
<g mask="url(#mask0_0_70)">
<path id="icon/ui_2" d="M30.4 49.0667C35.5556 49.0667 39.9556 47.2556 43.6 43.6333C47.2444 40.0111 49.0667 35.6 49.0667 30.4C49.0667 25.2444 47.2444 20.8444 43.6 17.2C39.9556 13.5556 35.5556 11.7333 30.4 11.7333C25.2 11.7333 20.7889 13.5556 17.1667 17.2C13.5444 20.8444 11.7333 25.2444 11.7333 30.4C11.7333 35.6 13.5444 40.0111 17.1667 43.6333C20.7889 47.2556 25.2 49.0667 30.4 49.0667ZM30.4 54.4C27.0667 54.4 23.9444 53.7667 21.0333 52.5C18.1222 51.2333 15.5889 49.5222 13.4333 47.3667C11.2778 45.2111 9.56667 42.6778 8.3 39.7667C7.03333 36.8556 6.4 33.7333 6.4 30.4C6.4 27.1111 7.03333 24.0111 8.3 21.1C9.56667 18.1889 11.2778 15.6444 13.4333 13.4667C15.5889 11.2889 18.1222 9.56667 21.0333 8.3C23.9444 7.03333 27.0667 6.4 30.4 6.4C33.6889 6.4 36.7889 7.03333 39.7 8.3C42.6111 9.56667 45.1556 11.2889 47.3333 13.4667C49.5111 15.6444 51.2333 18.1889 52.5 21.1C53.7667 24.0111 54.4 27.1111 54.4 30.4C54.4 33.2444 53.9333 35.9333 53 38.4667C52.0667 41 50.7778 43.3111 49.1333 45.4L59.7333 56L55.9333 59.7333L45.3333 49.2C43.2444 50.8445 40.9333 52.1222 38.4 53.0333C35.8667 53.9445 33.2 54.4 30.4 54.4Z" fill="black"/>
</g>
</g>
</svg>
