<svg preserveAspectRatio="none" overflow="visible" style="display: block;" width="48" height="48" viewBox="0 0 48 48" fill="none" xmlns="http://www.w3.org/2000/svg">
<g id="search">
<mask id="mask0_0_680" style="mask-type:alpha" maskUnits="userSpaceOnUse" x="0" y="0" width="48" height="48">
<path id="Bounding box" d="M0 0H48V48H0V0Z" fill="#D9D9D9"/>
</mask>
<g mask="url(#mask0_0_680)">
<path id="search_2" d="M19.319 31.6312C15.879 31.6312 12.9657 30.4385 10.5792 28.053C8.19307 25.6672 7 22.7547 7 19.3156C7 15.8765 8.19307 12.9641 10.5792 10.5782C12.9657 8.19274 15.879 7 19.319 7C22.7591 7 25.6723 8.19274 28.0588 10.5782C30.445 12.9641 31.638 15.8765 31.638 19.3156C31.638 20.7539 31.3966 22.1276 30.9138 23.4366C30.4307 24.7457 29.7862 25.8842 28.9804 26.8522L40.5717 38.4403C40.8507 38.7189 40.9934 39.0693 40.9998 39.4916C41.0062 39.9138 40.8635 40.2708 40.5717 40.5625C40.28 40.8542 39.9261 41 39.5101 41C39.0944 41 38.7407 40.8542 38.449 40.5625L26.8577 28.9744C25.8504 29.8058 24.6921 30.4565 23.3827 30.9264C22.0733 31.3963 20.7187 31.6312 19.319 31.6312ZM19.319 28.6109C21.9147 28.6109 24.1131 27.7103 25.9144 25.9092C27.716 24.1084 28.6168 21.9106 28.6168 19.3156C28.6168 16.7207 27.716 14.5228 25.9144 12.722C24.1131 10.9209 21.9147 10.0204 19.319 10.0204C16.7234 10.0204 14.5249 10.9209 12.7236 12.722C10.922 14.5228 10.0212 16.7207 10.0212 19.3156C10.0212 21.9106 10.922 24.1084 12.7236 25.9092C14.5249 27.7103 16.7234 28.6109 19.319 28.6109Z" fill="white"/>
</g>
</g>
</svg>
